HIERARCHY
ROOT Hips
{
 OFFSET 0.000000 0.000000 0.000000
 CHANNELS 6 Xposition Yposition Zposition Yrotation Xrotation Zrotation
 JOINT Chest
 {
  OFFSET 0.000000 9.585900 0.002600
  CHANNELS 3 Yrotation Xrotation Zrotation
  JOINT Chest2
  {
   OFFSET 0.000000 9.601200 -0.005300
   CHANNELS 3 Yrotation Xrotation Zrotation
   JOINT Chest3
   {
    OFFSET 0.000000 9.561800 0.000000
    CHANNELS 3 Yrotation Xrotation Zrotation
    JOINT Chest4
    {
     OFFSET 0.000000 9.552100 0.000000
     CHANNELS 3 Yrotation Xrotation Zrotation
     JOINT Neck
     {
      OFFSET 0.000000 14.453000 0.000000
      CHANNELS 3 Yrotation Xrotation Zrotation
      JOINT Head
      {
       OFFSET 0.000000 8.936500 -0.011300
       CHANNELS 3 Yrotation Xrotation Zrotation
       End Site
       {
        OFFSET 0.000000 17.073600 -0.006000
       }
      }
     }
     JOINT RightCollar
     {
      OFFSET -2.921100 9.558500 0.000000
      CHANNELS 3 Yrotation Xrotation Zrotation
      JOINT RightShoulder
      {
       OFFSET -13.519700 0.000000 0.000000
       CHANNELS 3 Yrotation Xrotation Zrotation
       JOINT RightElbow
       {
        OFFSET 0.000000 -29.696600 0.000000
        CHANNELS 3 Yrotation Xrotation Zrotation
        JOINT RightWrist
        {
         OFFSET 0.000000 -24.004700 0.000000
         CHANNELS 3 Yrotation Xrotation Zrotation
         End Site
         {
          OFFSET 0.000000 -17.728500 0.000000
         }
        }
       }
      }
     }
     JOINT LeftCollar
     {
      OFFSET 2.921100 9.558500 0.000000
      CHANNELS 3 Yrotation Xrotation Zrotation
      JOINT LeftShoulder
      {
       OFFSET 13.519700 0.000000 0.000000
       CHANNELS 3 Yrotation Xrotation Zrotation
       JOINT LeftElbow
       {
        OFFSET 0.000000 -29.696600 0.000000
        CHANNELS 3 Yrotation Xrotation Zrotation
        JOINT LeftWrist
        {
         OFFSET 0.000000 -24.004700 0.000000
         CHANNELS 3 Yrotation Xrotation Zrotation
         End Site
         {
          OFFSET 0.000000 -17.728500 0.000000
         }
        }
       }
      }
     }
    }
   }
  }
 }
 JOINT RightHip
 {
  OFFSET -7.771700 -0.012900 -0.001300
  CHANNELS 3 Yrotation Xrotation Zrotation
  JOINT RightKnee
  {
   OFFSET 0.000000 -40.869800 0.001200
   CHANNELS 3 Yrotation Xrotation Zrotation
   JOINT RightAnkle
   {
    OFFSET 0.000000 -39.717900 0.002100
    CHANNELS 3 Yrotation Xrotation Zrotation
    JOINT RightToe
    {
     OFFSET 0.000000 -4.965400 11.033500
     CHANNELS 3 Yrotation Xrotation Zrotation
     End Site
     {
      OFFSET 0.000000 -1.423100 5.872300
     }
    }
   }
  }
 }
 JOINT LeftHip
 {
  OFFSET 7.771700 -0.012900 -0.001300
  CHANNELS 3 Yrotation Xrotation Zrotation
  JOINT LeftKnee
  {
   OFFSET 0.000000 -40.869800 0.001200
   CHANNELS 3 Yrotation Xrotation Zrotation
   JOINT LeftAnkle
   {
    OFFSET 0.000000 -39.717900 0.002100
    CHANNELS 3 Yrotation Xrotation Zrotation
    JOINT LeftToe
    {
     OFFSET 0.000000 -4.965400 11.033500
     CHANNELS 3 Yrotation Xrotation Zrotation
     End Site
     {
      OFFSET 0.000000 -1.423100 5.872300
     }
    }
   }
  }
 }
}
MOTION
Frames: 8
Frame Time: 0.008333
-22.804675 51.602563 28.310198 179.849738 -20.888674 -0.584901 -1.840478 11.989189 1.333970 -0.133259 0.893132 0.153145 -0.257482 1.511929 0.267525 -1.672996 10.917762 1.787398 -2.867131 17.667131 -3.838856 -2.205060 -7.073737 -3.400035 4.950152 15.895043 13.126357 26.232709 -2.947996 -29.407896 123.148000 -68.368794 -160.237315 0.362818 6.121638 3.755803 -3.790931 14.659091 -16.203197 -29.156716 2.357368 29.326168 -114.506046 -78.187238 152.962401 12.831614 9.511987 -14.052944 -12.109946 -61.749109 4.858005 -69.699983 82.342263 -78.530645 -3.814474 -6.189727 8.256734 0.292211 -0.805320 0.126223 10.669432 -59.876905 -8.704641 42.128870 85.975606 47.836405 -2.890108 -13.320544 1.381805 0.164514 0.470597 0.071606
-22.803769 51.602026 28.309404 179.852405 -20.891744 -0.585926 -1.828608 11.997338 1.333318 -0.133342 0.894658 0.154341 -0.263305 1.508777 0.268014 -1.637098 10.937900 1.775213 -2.886273 17.653862 -3.820214 -2.208493 -7.073300 -3.396135 4.944472 15.872444 13.139678 26.232256 -2.943011 -29.411328 123.157256 -68.339046 -160.257857 0.352056 6.125132 3.790862 -3.820856 14.638677 -16.178432 -29.141159 2.363201 29.325549 -114.582711 -78.166561 153.039289 12.829785 9.520239 -14.057079 -12.113455 -61.745736 4.857155 -69.708942 82.343231 -78.536644 -3.816284 -6.193704 8.257925 0.292393 -0.801743 0.123424 10.656918 -59.873760 -8.696729 42.184782 85.971959 47.891989 -2.896643 -13.326261 1.376893 0.166590 0.474423 0.073568
-22.803313 51.601433 28.309119 179.857927 -20.891772 -0.585216 -1.808426 12.009232 1.332709 -0.151823 0.885582 0.156721 -0.255100 1.513822 0.265846 -1.634760 10.937349 1.774972 -2.891893 17.651016 -3.815021 -2.203358 -7.070483 -3.395969 4.956707 15.864459 13.136567 26.233844 -2.939983 -29.413518 123.158444 -68.310129 -160.261537 0.340231 6.132161 3.817486 -3.813998 14.639392 -16.176347 -29.136441 2.371196 29.336327 -114.665202 -78.150318 153.113503 12.829834 9.525561 -14.056807 -12.115080 -61.745584 4.852398 -69.717040 82.343423 -78.544303 -3.813615 -6.198706 8.260526 0.288872 -0.797897 0.121323 10.646198 -59.874288 -8.695846 42.184937 85.971789 47.891121 -2.894388 -13.324286 1.372697 0.167156 0.473158 0.074112
-22.803048 51.600830 28.309108 179.860361 -20.890151 -0.582590 -1.800633 12.012960 1.329715 -0.156356 0.882815 0.157762 -0.247699 1.517536 0.264862 -1.626424 10.939726 1.771404 -2.900221 17.647158 -3.806226 -2.181782 -7.052547 -3.400285 4.949991 15.852969 13.140677 26.252122 -2.928741 -29.418513 123.154455 -68.280086 -160.254949 0.329731 6.137465 3.837937 -3.815087 14.641013 -16.166453 -29.122230 2.371927 29.345906 -114.770077 -78.140506 153.196781 12.829161 9.518693 -14.049143 -12.111995 -61.748332 4.846632 -69.726704 82.343130 -78.553958 -3.808498 -6.201713 8.260518 0.282993 -0.796153 0.121263 10.640421 -59.874375 -8.701019 42.190869 85.966775 47.901444 -2.892899 -13.325804 1.363611 0.169904 0.475714 0.075140
-22.802739 51.600347 28.309047 179.859587 -20.888822 -0.579828 -1.792839 12.018348 1.326606 -0.151628 0.880291 0.157586 -0.246351 1.517854 0.264329 -1.614289 10.947088 1.767290 -2.891858 17.656051 -3.803476 -2.204213 -7.064423 -3.383099 4.937926 15.837177 13.146360 26.278298 -2.915438 -29.424414 123.144596 -68.254658 -160.252314 0.331748 6.140461 3.863165 -3.828212 14.636439 -16.151820 -29.113630 2.369374 29.350836 -114.813642 -78.127444 153.245063 12.832952 9.523748 -14.049511 -12.107313 -61.750530 4.841757 -69.726844 82.346065 -78.551051 -3.809236 -6.204536 8.254830 0.287503 -0.792384 0.125475 10.642328 -59.874083 -8.705294 42.184817 85.965213 47.897017 -2.891408 -13.328323 1.360310 0.169631 0.478258 0.075391
-22.802296 51.599707 28.309573 179.857575 -20.883597 -0.578555 -1.786555 12.019635 1.324270 -0.146970 0.882671 0.158556 -0.245237 1.518407 0.263856 -1.608981 10.945666 1.766239 -2.888495 17.661539 -3.803022 -2.212857 -7.070278 -3.374755 4.970693 15.824639 13.132475 26.266615 -2.914299 -29.415496 123.140612 -68.249539 -160.276654 0.338698 6.105086 3.936564 -3.831668 14.634987 -16.142541 -29.107682 2.368561 29.355812 -114.879340 -78.108560 153.315242 12.832560 9.526800 -14.035569 -12.111281 -61.758216 4.848208 -69.734120 82.351537 -78.554942 -3.821458 -6.201636 8.244002 0.301554 -0.793308 0.132296 10.645990 -59.878873 -8.708248 42.167586 85.965447 47.881272 -2.889394 -13.328664 1.357845 0.167902 0.478913 0.076055
-22.802359 51.599155 28.309916 179.843471 -20.879384 -0.571343 -1.769298 12.021751 1.319641 -0.148605 0.882560 0.158256 -0.235047 1.525546 0.259957 -1.614860 10.934698 1.773568 -2.888745 17.662511 -3.802367 -2.188923 -7.044459 -3.387121 5.000900 15.819957 13.121406 26.264604 -2.906615 -29.418916 123.143163 -68.247305 -160.311867 0.333038 6.104385 3.954187 -3.824078 14.643752 -16.145791 -29.083795 2.366059 29.374503 -115.013456 -78.100498 153.423553 12.836400 9.525935 -14.028166 -12.102735 -61.763730 4.844469 -69.714434 82.351783 -78.531737 -3.805724 -6.205097 8.239086 0.298025 -0.789585 0.130516 10.660697 -59.882447 -8.710537 42.207600 85.964107 47.919725 -2.893207 -13.328578 1.357318 0.165532 0.477715 0.075676
-22.802507 51.598616 28.310259 179.836969 -20.874733 -0.567790 -1.758892 12.024131 1.315823 -0.145740 0.880993 0.159229 -0.238486 1.523669 0.260615 -1.599103 10.937952 1.773346 -2.888844 17.667533 -3.800083 -2.202082 -7.051209 -3.378998 4.997069 15.810999 13.121617 26.263168 -2.904032 -29.420330 123.178374 -68.218607 -160.330971 0.319849 6.067750 4.001145 -3.831167 14.647097 -16.139930 -29.088958 2.361291 29.385045 -115.081383 -78.084582 153.499411 12.837999 9.543367 -14.031374 -12.098130 -61.770324 4.843846 -69.709229 82.353439 -78.526300 -3.796899 -6.202224 8.238028 0.291771 -0.791995 0.129473 10.666992 -59.887735 -8.712009 42.205789 85.965603 47.918002 -2.893531 -13.326482 1.355131 0.168565 0.475262 0.076884
